<svg width="11" height="15" viewBox="0 0 11 15" fill="none" xmlns="http://www.w3.org/2000/svg">
<path d="M7.54593 2.62772C8.07272 2.06376 8.42904 1.28078 8.33151 0.5C7.57258 0.527084 6.65278 0.945493 6.10803 1.50941C5.6197 2.00864 5.19217 2.80651 5.30627 3.57197C6.15312 3.62926 7.01827 3.19077 7.54593 2.62772ZM9.16218 8.01979C9.146 6.26937 10.548 5.42866 10.6101 5.38803C9.8219 4.19936 8.59433 4.03672 8.15714 4.01837C7.11187 3.90864 6.11903 4.65139 5.58835 4.65139C5.05982 4.65139 4.24231 4.03278 3.37538 4.04939C2.2357 4.06817 1.18557 4.73182 0.600236 5.78363C-0.583679 7.89959 0.29679 11.0341 1.45045 12.7504C2.01441 13.5906 2.68589 14.5332 3.56766 14.4991C4.41884 14.465 4.73971 13.933 5.76665 13.933C6.79401 13.933 7.08166 14.4991 7.98047 14.4821C8.89504 14.465 9.47384 13.6256 10.033 12.7828C10.68 11.8083 10.9467 10.8649 10.962 10.8173C10.9423 10.8059 9.18096 10.113 9.16218 8.01979Z" fill="#7A7A7A"/>
</svg>
