<svg width="9" height="15" viewBox="0 0 9 15" fill="none" xmlns="http://www.w3.org/2000/svg">
<path d="M2.82663 8.40238C2.77406 8.40238 1.61762 8.40238 1.09196 8.40238C0.811609 8.40238 0.723999 8.29725 0.723999 8.03442C0.723999 7.33354 0.723999 6.61514 0.723999 5.91427C0.723999 5.63392 0.82913 5.54631 1.09196 5.54631H2.82663C2.82663 5.49374 2.82663 4.47747 2.82663 4.00438C2.82663 3.3035 2.94928 2.63767 3.29972 2.02441C3.66768 1.39362 4.19334 0.973091 4.85917 0.727785C5.29722 0.570087 5.73526 0.5 6.20835 0.5H7.9255C8.17081 0.5 8.27594 0.605131 8.27594 0.850438V2.84793C8.27594 3.09324 8.17081 3.19837 7.9255 3.19837C7.45241 3.19837 6.97932 3.19837 6.50623 3.21589C6.03314 3.21589 5.78783 3.44368 5.78783 3.93429C5.77031 4.45995 5.78783 4.96808 5.78783 5.51126H7.82037C8.10072 5.51126 8.20585 5.6164 8.20585 5.89675V8.0169C8.20585 8.29725 8.11824 8.38486 7.82037 8.38486C7.18958 8.38486 5.84039 8.38486 5.78783 8.38486V14.097C5.78783 14.3949 5.70022 14.5 5.38482 14.5C4.64891 14.5 3.93051 14.5 3.19459 14.5C2.93176 14.5 2.82663 14.3949 2.82663 14.132C2.82663 12.2922 2.82663 8.45494 2.82663 8.40238Z" fill="#7A7A7A"/>
</svg>
