<svg width="15" height="15" viewBox="0 0 15 15" fill="none" xmlns="http://www.w3.org/2000/svg">
<g clip-path="url(#clip0_1_41)">
<path d="M0.5 7.5C0.5 3.6402 3.6402 0.5 7.5 0.5C9.05887 0.5 10.5343 1.00153 11.7669 1.9504L10.1403 4.06347C9.37813 3.4768 8.46513 3.16667 7.5 3.16667C5.1106 3.16667 3.16667 5.1106 3.16667 7.5C3.16667 9.8894 5.1106 11.8333 7.5 11.8333C9.42447 11.8333 11.0599 10.5725 11.6235 8.83333H7.5V6.16667H14.5V7.5C14.5 11.3598 11.3598 14.5 7.5 14.5C3.6402 14.5 0.5 11.3598 0.5 7.5Z" fill="#7A7A7A"/>
</g>
<defs>
<clipPath id="clip0_1_41">
<rect width="14" height="14" fill="white" transform="translate(0.5 0.5)"/>
</clipPath>
</defs>
</svg>
