<svg width="15" height="15" viewBox="0 0 15 15" fill="none" xmlns="http://www.w3.org/2000/svg">
<path d="M14.9006 14.9012V9.47981C14.9006 6.81537 14.327 4.78003 11.2185 4.78003C9.7197 4.78003 8.72054 5.59417 8.31347 6.37129H8.27646V5.02057H5.33447V14.9012H8.40598V9.9979C8.40598 8.70268 8.64652 7.46298 10.2378 7.46298C11.8106 7.46298 11.8291 8.92472 11.8291 10.0719V14.8827H14.9006V14.9012Z" fill="#7A7A7A"/>
<path d="M0.342163 5.02057H3.41367V14.9012H0.342163V5.02057Z" fill="#7A7A7A"/>
<path d="M1.87578 0.0987549C0.89512 0.0987549 0.0994873 0.894387 0.0994873 1.87505C0.0994873 2.85571 0.89512 3.66985 1.87578 3.66985C2.85645 3.66985 3.65208 2.85571 3.65208 1.87505C3.65208 0.894387 2.85645 0.0987549 1.87578 0.0987549Z" fill="#7A7A7A"/>
</svg>
