<svg xmlns="http://www.w3.org/2000/svg" viewBox="0 0 142.23 27.6"><g id="Layer_2" data-name="Layer 2"><g id="Layer_1-2" data-name="Layer 1"><path d="M50.71,11.84A5,5,0,0,0,47.29,13,3.42,3.42,0,0,0,46,15.62,3.23,3.23,0,0,0,46.81,18a2.66,2.66,0,0,0,2,.88,2.75,2.75,0,0,0,1.9-.72,2.37,2.37,0,0,0,.8-1.84,2.32,2.32,0,0,0-.6-1.72,2,2,0,0,0-1.48-.6,1.84,1.84,0,0,0-1.88,1.24.42.42,0,0,1-.4.32c-.27,0-.37-.13-.32-.4a2.49,2.49,0,0,1,1.36-1.88,5.87,5.87,0,0,1,2.92-.68,7.21,7.21,0,0,1,2.8.63l.24-.68A9.23,9.23,0,0,0,50.71,11.84Zm.36,9.44A10.26,10.26,0,0,1,49.13,25a4.18,4.18,0,0,1-3.22,1.18v.64H57.75v-.64h-.68a15.43,15.43,0,0,1-3.72-.36A2.26,2.26,0,0,1,52,25a3,3,0,0,1-.42-1.74A6.85,6.85,0,0,1,52,20.88l2.53-7.36q-.35-.18-.69-.33Zm-9.92-9.59c0-3.84-.54-6.68-1.6-8.51S36.38.43,33.24.43a7.86,7.86,0,0,0-4.89,1.62,8.93,8.93,0,0,0-3.08,4.26h-.33Q23.73.43,17.19.43a7.85,7.85,0,0,0-4.88,1.62A8.93,8.93,0,0,0,9.23,6.31H8.9V.82a38.39,38.39,0,0,1-7.75.71H0v.82H3.9V26H.27v.82H12.42V26H8.79V16Q8.79,2,16.15,2a3.62,3.62,0,0,1,2.25.66q1.82,1.53,1.82,7.8V26H16.59v.82H28.46V26H24.83V16Q24.83,2,32.19,2a3.62,3.62,0,0,1,2.25.66q1.81,1.53,1.82,7.8V26H32.63v.82H44.77V26H41.15ZM113,10.28a5.48,5.48,0,0,1-1.84.6h-.68c0,.64,0,1.83,0,3.58a45.39,45.39,0,0,1-.32,5.3,11.08,11.08,0,0,1-1.76,5,4.82,4.82,0,0,1-4.36,2.08,4.88,4.88,0,0,1-4.44-2,13.1,13.1,0,0,1-1.12-2.16q-.89-2.16-.88-9a26.11,26.11,0,0,1,1-7.72,8.54,8.54,0,0,1,1.44-2.76,6.21,6.21,0,0,1,2.32-1.72,9.17,9.17,0,0,1,3.72-.64,7.18,7.18,0,0,1,4.28,1.44,4.66,4.66,0,0,1,2.2,2.92c0,.27-.07.4-.36.4a.42.42,0,0,1-.4-.32A1.84,1.84,0,0,0,110,4a2,2,0,0,0-1.5.64,2.44,2.44,0,0,0-.62,1.76,2.25,2.25,0,0,0,.8,1.8,2.87,2.87,0,0,0,1.92.68,2.69,2.69,0,0,0,2-.88,3.09,3.09,0,0,0,.86-2.24q0-2.2-2.52-4a10,10,0,0,0-6-1.8A11.17,11.17,0,0,0,96,3.7q-3.23,3.7-3.22,9.78a16.48,16.48,0,0,0,3,10.1,10.66,10.66,0,0,0,16.68,0,16.14,16.14,0,0,0,3-9.9,18.77,18.77,0,0,0-.8-5.36A2.65,2.65,0,0,1,113,10.28ZM58,15a13.57,13.57,0,0,0-3.17-2.15l-.24.71a1.92,1.92,0,0,1,.25.12,12.28,12.28,0,0,1,3.54,2.84,25.39,25.39,0,0,1,4.57,7.09l-1.23-4A19.28,19.28,0,0,0,58,15ZM139.25,4a10.66,10.66,0,0,0-16.68,0,16.14,16.14,0,0,0-3,9.9,18.77,18.77,0,0,0,.8,5.36,2.65,2.65,0,0,1,1.6-2,5.48,5.48,0,0,1,1.84-.6h.68c0-.64,0-1.83,0-3.58a45.39,45.39,0,0,1,.32-5.3,11.08,11.08,0,0,1,1.76-5A4.82,4.82,0,0,1,130.91.76a4.88,4.88,0,0,1,4.44,2A13.91,13.91,0,0,1,136.47,5q.89,2.16.88,9a26.11,26.11,0,0,1-1,7.72A8.54,8.54,0,0,1,135,24.4a6.21,6.21,0,0,1-2.32,1.72,9.17,9.17,0,0,1-3.72.64,7.18,7.18,0,0,1-4.28-1.44,4.66,4.66,0,0,1-2.2-2.92c-.05-.27.07-.4.36-.4a.42.42,0,0,1,.4.32,1.84,1.84,0,0,0,1.88,1.24,2,2,0,0,0,1.5-.64,2.44,2.44,0,0,0,.62-1.76,2.25,2.25,0,0,0-.8-1.8,2.87,2.87,0,0,0-1.92-.68,2.67,2.67,0,0,0-2,.88,3.09,3.09,0,0,0-.86,2.24q0,2.2,2.52,4a10,10,0,0,0,6,1.8,11.17,11.17,0,0,0,8.9-3.7q3.23-3.7,3.22-9.78A16.48,16.48,0,0,0,139.25,4ZM60.07,0H60a1.9,1.9,0,0,0-1.84,1.12,8,8,0,0,0-.52,1.32L54.11,12.51q.35.13.69.3l2.43-7h.24l4.22,13.81a26.78,26.78,0,0,1,1.9,3.91l-.64.16,0-.07.79,2.59h-3v.64H71v-.64H68.15ZM86.59.4a3.2,3.2,0,0,0-2.32.86,2.67,2.67,0,0,0-.88,2,2.87,2.87,0,0,0,.68,1.92,2.25,2.25,0,0,0,1.8.8,2.44,2.44,0,0,0,1.76-.62,2,2,0,0,0,.64-1.5A1.8,1.8,0,0,0,87,2a.45.45,0,0,1-.32-.44c0-.21.17-.32.5-.32a1.88,1.88,0,0,1,1.18.66,2.08,2.08,0,0,1,.68,1.52,5.27,5.27,0,0,1-.28,1.7l-5.8,17h-.24l-6-20.64h3V.8H69.31v.64h2.84L80.23,27.6h.12a1.9,1.9,0,0,0,1.84-1.12,8,8,0,0,0,.52-1.32l6.84-20a5.2,5.2,0,0,0,.28-1.82,2.93,2.93,0,0,0-.9-2A3.06,3.06,0,0,0,86.59.4Z"/></g></g></svg>