<svg 
 xmlns="http://www.w3.org/2000/svg"
 xmlns:xlink="http://www.w3.org/1999/xlink"
 width="20px" height="22px">
<path fill-rule="evenodd"  fill="#ffffff"
 d="M10.778,10.376 L9.232,10.376 L9.232,13.210 L6.268,13.210 L6.268,14.714 L9.232,14.714 L9.232,17.549 L10.778,17.549 L10.778,14.714 L13.742,14.714 L13.742,13.210 L10.778,13.210 L10.778,10.376 ZM15.137,5.931 L14.420,5.931 L14.420,4.302 C14.420,1.933 12.439,0.007 10.005,0.007 C7.570,0.007 5.590,1.933 5.590,4.302 L5.590,5.931 L4.872,5.931 C2.186,5.931 -0.000,8.057 -0.000,10.670 L-0.000,17.255 C-0.000,19.867 2.186,21.993 4.872,21.993 L15.137,21.993 C17.824,21.993 20.010,19.867 20.010,17.255 L20.010,10.670 C20.010,8.057 17.824,5.931 15.137,5.931 ZM7.137,4.302 C7.137,2.763 8.423,1.512 10.005,1.512 C11.586,1.512 12.873,2.763 12.873,4.302 L12.873,5.931 L7.137,5.931 L7.137,4.302 ZM18.463,17.255 C18.463,19.037 16.971,20.489 15.137,20.489 L4.872,20.489 C3.039,20.489 1.547,19.037 1.547,17.255 L1.547,10.670 C1.547,8.886 3.039,7.435 4.872,7.435 L5.590,7.435 L5.590,10.083 L7.137,10.083 L7.137,7.435 L12.873,7.435 L12.873,10.083 L14.420,10.083 L14.420,7.435 L15.137,7.435 C16.971,7.435 18.463,8.886 18.463,10.670 L18.463,17.255 Z"/>
</svg>