<svg 
 xmlns="http://www.w3.org/2000/svg"
 xmlns:xlink="http://www.w3.org/1999/xlink"
 width="26px" height="20px">
<path fill-rule="evenodd"  fill="rgb(0, 0, 0)"
 d="M23.663,1.616 C25.123,3.234 25.1000,4.998 25.1000,7.939 C25.1000,13.087 22.348,17.646 17.236,19.999 L15.921,18.087 C20.742,15.440 21.764,12.057 22.056,9.851 C21.326,10.293 20.303,10.440 19.281,10.293 C16.652,9.999 14.607,7.939 14.607,5.146 C14.607,3.822 15.191,2.499 16.067,1.470 C17.090,0.440 18.258,-0.001 19.719,-0.001 C21.326,-0.001 22.786,0.734 23.663,1.616 L23.663,1.616 ZM9.056,1.616 C10.517,3.234 11.393,4.998 11.393,7.939 C11.393,13.087 7.741,17.646 2.629,19.999 L1.315,18.087 C6.135,15.440 7.157,12.057 7.449,9.851 C6.719,10.293 5.697,10.440 4.674,10.293 C2.045,9.999 0.000,7.794 0.000,5.146 C0.000,3.822 0.584,2.499 1.461,1.470 C2.483,0.440 3.652,-0.001 5.112,-0.001 C6.719,-0.001 8.180,0.734 9.056,1.616 L9.056,1.616 Z"/>
</svg>