<svg 
 xmlns="http://www.w3.org/2000/svg"
 xmlns:xlink="http://www.w3.org/1999/xlink"
 width="66px" height="50px">
<path fill-rule="evenodd"  fill="rgb(255, 255, 255)"
 d="M60.067,4.043 C63.775,8.088 65.1000,12.499 65.1000,19.852 C65.1000,32.720 56.730,44.117 43.753,49.999 L40.416,45.220 C52.652,38.602 55.247,30.147 55.989,24.632 C54.135,25.735 51.539,26.102 48.944,25.735 C42.270,24.999 37.079,19.852 37.079,12.867 C37.079,9.558 38.562,6.249 40.786,3.676 C43.382,1.103 46.348,-0.001 50.056,-0.001 C54.135,-0.001 57.843,1.838 60.067,4.043 L60.067,4.043 ZM22.989,4.043 C26.697,8.088 28.921,12.499 28.921,19.852 C28.921,32.720 19.652,44.117 6.674,49.999 L3.337,45.220 C15.573,38.602 18.169,30.147 18.910,24.632 C17.056,25.735 14.461,26.102 11.865,25.735 C5.191,24.999 0.000,19.485 0.000,12.867 C0.000,9.558 1.483,6.249 3.708,3.676 C6.303,1.103 9.270,-0.001 12.978,-0.001 C17.056,-0.001 20.764,1.838 22.989,4.043 L22.989,4.043 Z"/>
</svg>