<svg xmlns="http://www.w3.org/2000/svg" width="49" height="50" viewBox="0 0 49 50">
  <defs>
    <style>
      .cls-1 {
        fill-rule: evenodd;
        opacity: 0.9;
      }
    </style>
  </defs>
  <path id="_24_7" data-name="24/7" class="cls-1" d="M1472.81,6012.14a24.663,24.663,0,0,0-37.39,3.14,1.518,1.518,0,0,0,1.5,2.37,1.5,1.5,0,0,0,.99-0.61,21.45,21.45,0,1,1,26.82,31.64,1.5,1.5,0,0,0-.78.86,1.461,1.461,0,0,0,.06,1.16,1.52,1.52,0,0,0,.87.78,1.687,1.687,0,0,0,.5.08,1.517,1.517,0,0,0,.66-0.15,24.556,24.556,0,0,0,10.08-8.84A24.3,24.3,0,0,0,1472.81,6012.14Zm-8.1,33.46a8.034,8.034,0,0,0,.03-1.18,3.026,3.026,0,0,0-.23-1.14,5.068,5.068,0,0,0-2.06-2.11,16.708,16.708,0,0,0-8.97-2.36,4.069,4.069,0,0,0-1.96.97,19.189,19.189,0,0,0-2.13,2.2,20.115,20.115,0,0,1-4.06-3.69,18.63,18.63,0,0,1-2.69-4.58,22.061,22.061,0,0,0,2.55-1.65,3.947,3.947,0,0,0,1.32-1.74,14.459,14.459,0,0,0,.15-6.12,15.308,15.308,0,0,0-.82-3.07,4.975,4.975,0,0,0-1.72-2.4,3.11,3.11,0,0,0-1.08-.44,16.083,16.083,0,0,0-4.16-.2c-1.99.16-4.71,0.71-6.4,2.38a3.888,3.888,0,0,0-.86,1.47,10.971,10.971,0,0,0-.45,1.91,20.579,20.579,0,0,0,.02,5.44,31.344,31.344,0,0,0,6.47,15.02l0.02,0.03a30.613,30.613,0,0,0,14.01,9.63,20.668,20.668,0,0,0,5.36,1.02c0.19,0,.36.01,0.54,0.01a10.5,10.5,0,0,0,1.44-.1,3.849,3.849,0,0,0,1.61-.57c1.97-1.34,3.01-3.9,3.53-5.81A16.732,16.732,0,0,0,1464.71,6045.6Zm-6.15,6.31a7.147,7.147,0,0,1-1.38.05,17.675,17.675,0,0,1-4.56-.87,27.793,27.793,0,0,1-12.45-8.5,28.492,28.492,0,0,1-5.96-13.68,17,17,0,0,1-.02-4.62,6.519,6.519,0,0,1,.31-1.34,1.973,1.973,0,0,1,.16-0.36,7.622,7.622,0,0,1,4.46-1.48c0.08,0,.17-0.01.27-0.02h0.02a7.1,7.1,0,0,1,3,.14,2.936,2.936,0,0,1,.6,1.02,12.607,12.607,0,0,1,.64,2.44,11.783,11.783,0,0,1-.02,4.64,2.107,2.107,0,0,1-.41.42,23.463,23.463,0,0,1-3.09,1.87,1.519,1.519,0,0,0-.84,1.7l0.02,0.07a22.835,22.835,0,0,0,3.54,6.67,26.742,26.742,0,0,0,6.26,5.21l0.03,0.02,0.05,0.02a1.541,1.541,0,0,0,1.84-.5,15.656,15.656,0,0,1,2.41-2.68,3.713,3.713,0,0,1,.49-0.33,14.211,14.211,0,0,1,6.89,1.92,3.48,3.48,0,0,1,.86.66,6.907,6.907,0,0,1-.35,3l-0.01.04q-0.045.165-.09,0.3a7.573,7.573,0,0,1-2.28,4.09A1.708,1.708,0,0,1,1458.56,6051.91Zm6.53-31.66h-1.4a1.534,1.534,0,0,0-1.27.68l-4.39,6.61a1.559,1.559,0,0,0-.25.84v0.94a1.519,1.519,0,0,0,1.52,1.52h4.27v2.15a1.52,1.52,0,0,0,3.04,0v-2.19a1.513,1.513,0,0,0,0-2.96v-6.07A1.519,1.519,0,0,0,1465.09,6020.25Zm-1.52,4.46v3.1h-2.06Zm-10.53,3.18a47.128,47.128,0,0,1-4.81,3.88,1.508,1.508,0,0,0,.9,2.73h8.18a1.515,1.515,0,1,0,0-3.03h-3.72c0.63-.52,1.15-0.99,1.6-1.43a7.444,7.444,0,0,0,2.43-4.09,5.143,5.143,0,0,0-.75-3.79,4.37,4.37,0,0,0-2.91-1.79,6.144,6.144,0,0,0-6.13,3.02,1.473,1.473,0,0,0-.18,1.14,1.5,1.5,0,0,0,.69.94,1.532,1.532,0,0,0,2.09-.51,3.14,3.14,0,0,1,3.02-1.61,1.348,1.348,0,0,1,.92.54,2.226,2.226,0,0,1,.24,1.61A4.884,4.884,0,0,1,1453.04,6027.89Z" transform="translate(-1431 -6005)"/>
</svg>
