<svg 
 xmlns="http://www.w3.org/2000/svg"
 xmlns:xlink="http://www.w3.org/1999/xlink"
 width="169px" height="93px">
<path fill-rule="evenodd"  opacity="0.502" fill="rgb(255, 255, 255)"
 d="M-0.000,89.475 C0.027,89.573 0.046,89.674 0.053,89.777 L21.531,89.438 C21.970,89.686 22.416,89.911 22.865,90.107 C27.258,92.023 32.187,92.145 36.953,92.263 L37.943,92.288 C40.727,92.362 43.566,92.489 46.312,92.611 C50.639,92.804 55.031,92.1000 59.426,92.1000 C65.212,92.1000 71.004,92.660 76.668,91.528 C85.760,89.710 94.492,85.819 101.921,80.277 C105.011,77.972 107.922,75.350 110.738,72.815 C111.925,71.746 113.152,70.640 114.376,69.575 C117.957,66.454 121.731,63.475 125.602,60.709 C125.594,60.753 125.605,60.798 125.634,60.833 C126.952,62.410 129.111,63.349 131.515,63.419 L131.611,64.254 C131.616,64.299 131.642,64.339 131.680,64.364 C131.718,64.388 131.766,64.394 131.810,64.380 C133.654,63.765 135.446,63.055 137.175,62.254 C137.912,61.963 138.615,61.644 139.276,61.329 C143.218,59.452 146.240,57.364 148.447,54.982 C149.029,54.470 149.593,53.946 150.140,53.408 L168.933,53.836 C168.948,53.735 168.970,53.634 168.1000,53.535 L150.083,53.104 C150.037,53.106 150.002,53.119 149.973,53.148 C149.941,53.179 149.910,53.209 149.878,53.240 C149.888,53.227 149.898,53.213 149.907,53.200 C152.798,49.183 153.581,44.258 151.950,40.347 C151.950,40.346 151.949,40.346 151.949,40.345 C152.040,38.629 152.310,36.906 152.574,35.235 C152.710,34.376 152.850,33.488 152.965,32.611 C154.182,23.263 152.576,13.460 148.441,4.986 C148.489,4.885 148.505,4.766 148.440,4.681 C148.391,4.617 148.284,4.570 148.148,4.655 C148.106,4.682 148.081,4.727 148.078,4.773 C148.061,4.713 148.053,4.643 148.044,4.567 C148.030,4.448 148.016,4.326 147.967,4.208 C147.464,3.017 146.777,1.385 145.417,0.569 C143.590,-0.528 141.284,0.142 139.065,1.030 C133.933,3.083 128.629,5.204 123.577,7.664 C122.988,7.951 122.398,8.244 121.807,8.537 C117.411,10.719 112.865,12.975 107.979,13.099 C105.633,13.163 103.293,12.720 101.023,12.279 C101.015,12.239 100.993,12.201 100.956,12.178 C99.777,11.435 98.389,10.611 96.843,10.228 C95.825,9.976 94.814,9.955 93.910,10.153 C93.897,10.115 93.868,10.082 93.827,10.065 L91.636,9.119 C91.387,9.011 91.103,8.893 90.796,8.896 C90.156,8.909 89.695,9.449 89.358,9.844 C86.891,12.732 83.852,15.149 80.913,17.487 C78.074,19.744 75.138,22.080 72.706,24.845 C71.896,25.766 71.127,26.752 70.383,27.704 C68.925,29.572 67.418,31.505 65.553,33.005 C65.323,33.189 65.088,33.369 64.852,33.548 C64.185,34.055 63.494,34.579 62.946,35.238 C62.295,36.022 61.744,37.253 62.085,38.412 C58.298,42.979 54.758,46.168 50.959,48.435 C49.103,49.542 47.102,50.467 45.167,51.361 L44.780,51.539 C37.593,54.863 29.992,58.595 23.103,63.364 C21.562,64.431 19.812,65.712 18.552,67.410 C16.869,69.677 16.166,72.617 16.611,75.399 C16.579,75.390 16.545,75.388 16.514,75.400 C15.896,75.639 15.378,76.155 15.094,76.820 C14.921,77.224 14.848,77.654 14.875,78.065 C14.853,78.088 14.838,78.116 14.834,78.148 C14.238,82.678 17.288,86.825 21.034,89.143 L-0.000,89.475 ZM62.290,38.640 C62.326,38.634 62.359,38.619 62.383,38.591 C64.286,36.363 66.765,34.704 69.552,33.792 C69.733,33.733 69.916,33.677 70.099,33.620 C70.744,33.422 71.410,33.217 72.010,32.876 C72.902,32.369 73.588,31.600 74.228,30.809 L77.410,32.285 C77.449,32.305 77.494,32.305 77.534,32.287 C77.574,32.270 77.604,32.237 77.618,32.195 C77.639,32.132 77.660,32.068 77.682,32.005 C78.581,32.614 79.396,33.344 80.092,34.176 C79.821,33.980 79.541,33.793 79.255,33.616 C78.907,33.401 78.530,33.209 78.124,33.243 C77.684,33.285 77.332,33.592 77.105,33.820 C75.484,35.450 74.955,38.242 75.758,40.934 C76.484,43.365 78.093,45.493 79.512,47.371 L88.867,59.744 C89.163,60.136 89.467,60.497 89.922,60.598 C90.410,60.707 90.884,60.464 91.324,60.185 C94.029,58.470 96.444,56.255 98.399,53.709 C99.104,53.278 99.812,52.853 100.522,52.431 C100.531,52.432 100.540,52.438 100.550,52.438 C100.562,52.438 100.575,52.436 100.587,52.433 C100.638,52.420 100.671,52.379 100.687,52.332 C106.037,49.159 111.544,46.242 117.157,43.609 C118.562,42.950 119.841,42.403 121.189,42.455 C123.851,42.546 125.576,44.685 127.402,46.950 C128.145,47.871 128.912,48.823 129.743,49.614 C129.956,49.817 130.202,50.034 130.480,50.221 C127.498,51.684 124.475,53.227 121.679,55.074 C117.187,58.039 113.203,61.835 109.350,65.506 C104.577,70.053 99.641,74.756 93.740,77.855 C87.655,81.052 80.863,82.361 75.626,83.145 C63.151,85.010 49.728,85.250 33.383,83.901 C29.979,83.620 26.674,83.267 23.663,82.052 C20.539,80.791 18.150,78.669 16.992,76.161 C17.030,76.125 17.050,76.072 17.037,76.018 C16.368,73.126 17.026,69.974 18.796,67.590 C20.028,65.929 21.754,64.666 23.275,63.613 C30.146,58.857 37.732,55.131 44.907,51.814 L45.294,51.635 C47.236,50.738 49.245,49.811 51.115,48.695 C54.934,46.416 58.491,43.215 62.290,38.640 ZM99.704,51.185 L100.321,52.201 C99.840,52.486 99.359,52.771 98.881,53.060 C99.130,52.716 99.370,52.366 99.601,52.011 C99.609,52.000 99.614,51.988 99.619,51.975 C99.704,51.709 99.729,51.445 99.704,51.185 ZM95.695,19.004 C95.223,18.611 94.741,18.233 94.250,17.869 L91.568,15.762 C92.190,14.268 94.094,13.518 95.688,13.657 C97.386,13.804 98.941,14.671 100.445,15.507 L100.687,15.642 C102.605,16.707 104.571,17.651 106.539,18.496 C102.845,22.854 99.954,26.985 97.707,31.120 C96.787,32.812 95.664,35.065 95.144,37.485 C94.771,39.221 94.554,41.812 95.639,44.291 C95.951,45.006 96.360,45.679 96.755,46.329 L98.735,49.590 C97.780,48.851 96.350,48.588 95.272,48.985 C93.857,49.506 92.802,50.623 91.781,51.702 C91.367,52.140 90.939,52.592 90.495,52.996 C89.229,54.148 87.691,55.013 86.049,55.499 C86.046,55.500 86.043,55.501 86.040,55.502 L79.754,47.189 C78.281,45.240 76.758,43.226 76.049,40.847 C75.277,38.261 75.776,35.586 77.320,34.034 C77.513,33.839 77.810,33.577 78.152,33.546 C78.483,33.513 78.813,33.698 79.095,33.873 C79.699,34.246 80.269,34.663 80.802,35.121 C80.913,35.288 81.020,35.458 81.122,35.630 L81.224,35.804 C81.504,36.286 81.794,36.784 82.280,37.088 C82.617,37.299 83.077,37.357 83.451,37.237 C83.738,37.145 83.954,36.955 84.058,36.702 C84.219,36.312 83.947,35.896 83.592,35.721 C83.285,35.569 82.990,35.622 82.820,35.851 C82.626,35.917 82.477,36.082 82.410,36.297 C81.982,35.803 81.522,35.343 81.030,34.919 C80.174,33.650 79.061,32.564 77.790,31.713 C78.191,30.676 78.775,29.699 79.498,28.859 C81.103,29.529 82.635,30.363 84.066,31.348 C84.624,31.944 85.544,32.559 86.202,32.430 C86.412,32.389 86.686,32.251 86.800,31.827 C86.878,31.542 86.798,31.220 86.586,30.967 C86.374,30.715 86.070,30.581 85.775,30.607 C85.479,30.635 85.206,30.822 85.044,31.109 C84.960,31.258 84.914,31.418 84.907,31.574 C84.694,31.418 84.480,31.265 84.262,31.115 C84.199,31.046 84.140,30.976 84.087,30.905 C83.115,29.634 81.880,28.692 80.456,27.928 C80.980,26.384 82.061,25.054 83.469,24.226 L83.677,24.344 L89.307,28.850 C89.344,28.880 89.392,28.890 89.439,28.878 C89.484,28.867 89.522,28.835 89.541,28.791 C89.861,28.049 89.326,27.194 88.111,26.507 L83.847,24.092 L83.613,23.905 C83.573,23.873 83.519,23.863 83.471,23.880 L81.899,22.990 L81.928,22.960 L83.494,23.653 C83.568,23.686 83.655,23.654 83.691,23.582 C84.336,22.278 85.263,21.113 86.388,20.189 L91.813,23.220 C91.885,23.259 91.976,23.235 92.018,23.165 C92.060,23.094 92.038,23.003 91.968,22.959 L87.178,19.928 C87.181,19.924 87.183,19.920 87.186,19.916 C88.105,18.334 89.414,17.019 90.987,16.091 C92.050,16.704 93.077,17.378 94.066,18.110 L95.504,19.239 C95.570,19.290 95.664,19.279 95.715,19.215 C95.768,19.151 95.758,19.057 95.695,19.004 ZM85.355,19.265 L86.459,19.746 C86.425,19.772 86.391,19.798 86.357,19.824 L85.355,19.265 ZM86.105,20.030 C85.025,20.939 84.128,22.063 83.485,23.317 L82.158,22.731 C82.706,22.176 83.238,21.605 83.741,21.012 C84.144,20.536 84.534,20.038 84.912,19.557 C84.946,19.513 84.982,19.468 85.017,19.423 L86.105,20.030 ZM85.391,18.950 C85.818,18.413 86.259,17.876 86.728,17.376 C87.482,16.572 88.325,15.851 89.228,15.219 L90.436,15.780 C90.519,15.826 90.602,15.873 90.685,15.919 C89.171,16.845 87.904,18.122 86.992,19.648 L85.391,18.950 ZM86.670,19.965 L87.126,20.254 L86.644,19.985 C86.653,19.978 86.661,19.972 86.670,19.965 ZM81.677,23.212 L83.167,24.055 C81.782,24.915 80.718,26.247 80.184,27.785 C79.921,27.650 79.652,27.520 79.377,27.396 C78.922,27.121 78.434,26.901 77.926,26.743 C78.450,26.242 78.980,25.751 79.504,25.265 C80.226,24.596 80.961,23.916 81.677,23.212 ZM81.626,22.834 L81.565,22.800 L81.631,22.829 C81.629,22.831 81.627,22.832 81.626,22.834 ZM74.701,30.217 C74.806,30.085 74.910,29.954 75.016,29.824 C75.823,28.835 76.720,27.908 77.641,27.017 C78.191,27.222 78.727,27.435 79.239,27.666 C79.547,27.856 79.840,28.071 80.112,28.311 C80.151,28.346 80.205,28.358 80.255,28.344 C80.305,28.329 80.344,28.289 80.358,28.239 C80.360,28.234 80.361,28.228 80.363,28.222 C81.518,28.848 82.542,29.593 83.391,30.540 C82.160,29.764 80.862,29.093 79.514,28.538 C79.453,28.514 79.385,28.530 79.342,28.578 C78.576,29.447 77.957,30.463 77.531,31.544 C76.649,30.985 75.695,30.539 74.701,30.217 ZM77.422,31.832 C77.409,31.868 77.396,31.905 77.384,31.940 L74.423,30.566 C74.449,30.534 74.475,30.502 74.500,30.469 C75.528,30.791 76.514,31.250 77.422,31.832 ZM87.962,26.769 C88.331,26.979 89.446,27.681 89.321,28.473 L85.334,25.282 L87.962,26.769 ZM85.307,31.258 C85.421,31.057 85.606,30.927 85.803,30.909 C85.819,30.908 85.835,30.907 85.851,30.907 C86.033,30.907 86.218,30.1000 86.354,31.162 C86.502,31.339 86.559,31.558 86.507,31.748 C86.447,31.972 86.328,32.098 86.144,32.134 C85.909,32.180 85.598,32.087 85.278,31.916 C85.277,31.898 85.272,31.879 85.264,31.862 C85.178,31.684 85.194,31.459 85.307,31.258 ZM82.390,36.742 C82.395,36.764 82.401,36.788 82.407,36.810 C82.080,36.592 81.844,36.253 81.631,35.899 C81.895,36.168 82.148,36.449 82.390,36.742 ZM82.674,36.534 C82.682,36.360 82.769,36.169 82.948,36.130 C82.989,36.121 83.025,36.095 83.046,36.059 C83.100,35.966 83.178,35.938 83.255,35.938 C83.335,35.938 83.413,35.970 83.458,35.991 C83.684,36.104 83.870,36.363 83.777,36.587 C83.688,36.803 83.500,36.903 83.358,36.949 C83.239,36.987 83.109,37.002 82.978,36.996 C82.879,36.866 82.779,36.739 82.677,36.613 C82.674,36.586 82.673,36.560 82.674,36.534 ZM98.775,50.020 C99.337,50.557 99.536,51.212 99.336,51.864 C98.976,52.416 98.594,52.956 98.192,53.480 C95.134,55.352 92.129,57.309 89.189,59.342 L86.348,55.724 C87.954,55.215 89.454,54.353 90.699,53.220 C91.152,52.809 91.584,52.352 92.001,51.910 C92.998,50.856 94.029,49.766 95.377,49.269 C96.452,48.872 97.912,49.195 98.775,50.020 ZM89.245,59.672 C91.992,57.769 94.794,55.935 97.646,54.173 C95.809,56.419 93.604,58.381 91.161,59.930 C90.803,60.157 90.386,60.392 89.988,60.303 C89.679,60.233 89.438,59.983 89.208,59.691 C89.221,59.687 89.233,59.681 89.245,59.672 ZM74.140,30.435 L73.771,30.263 C73.911,30.297 74.050,30.335 74.188,30.374 C74.172,30.394 74.156,30.415 74.140,30.435 ZM91.351,10.420 C90.996,11.523 90.524,12.579 89.940,13.574 C89.915,13.614 89.889,13.655 89.864,13.695 C89.637,14.057 89.401,14.429 89.156,14.780 C88.304,14.364 87.434,13.981 86.544,13.638 C86.467,13.610 86.381,13.646 86.349,13.721 C86.318,13.796 86.351,13.883 86.425,13.917 L88.910,15.071 C88.044,15.691 87.235,16.392 86.507,17.169 C86.012,17.696 85.549,18.261 85.103,18.825 L82.662,17.761 C82.587,17.729 82.501,17.761 82.466,17.833 C82.430,17.905 82.457,17.992 82.527,18.032 L84.749,19.273 C84.724,19.306 84.698,19.338 84.673,19.370 C84.297,19.850 83.909,20.345 83.509,20.816 C82.988,21.431 82.432,22.024 81.860,22.600 L79.684,21.638 C79.642,21.619 79.594,21.621 79.553,21.642 C79.547,21.645 79.542,21.648 79.537,21.652 L78.311,20.958 C78.249,20.923 78.171,20.935 78.124,20.988 C77.924,21.210 77.889,21.483 78.028,21.740 C78.236,22.124 78.799,22.404 79.232,22.335 C79.419,22.306 79.568,22.214 79.665,22.072 L81.402,23.056 C80.708,23.736 79.997,24.395 79.298,25.043 C78.728,25.570 78.152,26.104 77.583,26.652 C77.525,26.637 77.468,26.618 77.410,26.605 C77.170,26.519 76.927,26.434 76.682,26.350 C76.683,26.179 76.626,26.010 76.511,25.854 C76.253,25.502 75.730,25.279 75.299,25.333 C74.983,25.373 74.746,25.551 74.633,25.835 C74.617,25.874 74.619,25.917 74.637,25.956 C74.655,25.994 74.688,26.023 74.728,26.035 C75.274,26.205 75.809,26.377 76.332,26.552 C76.331,26.553 76.331,26.554 76.330,26.555 C76.310,26.600 76.312,26.652 76.337,26.695 C76.363,26.738 76.407,26.765 76.457,26.769 C76.749,26.791 77.039,26.833 77.324,26.896 C77.326,26.897 77.327,26.897 77.329,26.898 C76.437,27.767 75.568,28.669 74.781,29.632 C74.650,29.794 74.520,29.957 74.390,30.121 C73.818,29.952 73.235,29.822 72.645,29.740 L71.810,29.353 C71.399,29.162 70.771,29.083 70.419,29.318 C70.249,29.430 70.163,29.602 70.171,29.813 C70.173,29.854 70.191,29.892 70.221,29.920 C70.252,29.948 70.290,29.962 70.333,29.959 C71.076,29.907 71.822,29.935 72.557,30.033 L73.944,30.677 C73.336,31.425 72.684,32.145 71.860,32.613 C71.289,32.938 70.639,33.137 70.010,33.331 C69.825,33.388 69.641,33.445 69.457,33.505 C66.706,34.404 64.250,36.019 62.336,38.183 C62.112,37.180 62.606,36.122 63.179,35.432 C63.705,34.799 64.382,34.285 65.035,33.789 C65.273,33.608 65.511,33.428 65.743,33.241 C67.636,31.718 69.154,29.772 70.622,27.890 C71.363,26.941 72.130,25.959 72.934,25.045 C75.348,22.300 78.273,19.973 81.102,17.723 C84.052,15.377 87.103,12.950 89.589,10.040 C89.963,9.602 90.337,9.208 90.802,9.199 C90.897,9.198 90.995,9.212 91.091,9.238 C91.104,9.279 91.135,9.315 91.179,9.333 L91.195,9.339 C91.544,9.487 91.458,10.086 91.351,10.420 ZM70.511,29.644 C70.529,29.616 70.555,29.591 70.587,29.569 C70.681,29.507 70.829,29.477 70.997,29.477 C71.216,29.477 71.469,29.529 71.683,29.627 L71.731,29.650 C71.325,29.626 70.919,29.624 70.511,29.644 ZM74.999,25.803 C75.079,25.708 75.192,25.652 75.337,25.633 C75.369,25.629 75.402,25.627 75.436,25.627 C75.742,25.627 76.091,25.794 76.267,26.033 C76.318,26.102 76.352,26.173 76.368,26.244 C75.920,26.094 75.464,25.948 74.999,25.803 ZM79.185,22.036 C78.881,22.081 78.440,21.865 78.294,21.596 C78.236,21.487 78.231,21.386 78.280,21.288 L79.400,21.922 C79.350,21.984 79.279,22.022 79.185,22.036 ZM93.500,10.260 C93.089,10.385 92.705,10.559 92.358,10.780 C91.887,11.080 91.488,11.458 91.132,11.877 C91.321,11.430 91.490,10.975 91.639,10.512 C91.739,10.202 91.787,9.838 91.710,9.545 L93.500,10.260 ZM111.051,19.947 C107.657,18.720 104.173,17.230 100.834,15.377 L100.592,15.243 C99.061,14.390 97.477,13.509 95.715,13.356 C94.044,13.210 92.021,13.949 91.310,15.592 C91.281,15.590 91.252,15.595 91.226,15.610 C91.158,15.646 91.091,15.682 91.025,15.720 L90.573,15.511 C90.237,15.326 89.898,15.147 89.555,14.974 C89.587,14.925 89.589,14.860 89.554,14.807 C89.547,14.797 89.539,14.787 89.529,14.779 C89.767,14.438 89.990,14.088 90.200,13.731 C90.842,12.711 91.518,11.675 92.521,11.035 C93.644,10.319 95.193,10.133 96.771,10.522 C98.212,10.879 99.522,11.638 100.650,12.344 C100.634,12.397 100.641,12.455 100.681,12.495 C103.699,15.516 107.224,18.031 111.051,19.947 ZM148.003,5.176 C146.327,10.986 142.913,16.364 138.363,20.349 C137.193,21.374 136.235,22.054 135.256,22.555 C133.122,23.646 130.474,24.064 126.923,23.879 C125.476,23.803 124.034,23.643 122.604,23.404 C120.010,22.748 117.094,21.959 114.042,20.970 C109.295,19.034 104.912,16.202 101.251,12.631 C103.448,13.055 105.711,13.458 107.987,13.402 C112.940,13.276 117.516,11.005 121.942,8.808 C122.533,8.515 123.122,8.222 123.710,7.936 C128.752,5.481 134.051,3.361 139.176,1.311 C141.325,0.452 143.547,-0.200 145.261,0.829 C146.440,1.536 147.057,2.831 147.687,4.326 C147.720,4.404 147.731,4.500 147.743,4.602 C147.765,4.786 147.789,4.995 147.956,5.142 C147.971,5.156 147.987,5.167 148.003,5.176 ZM140.267,45.164 C139.855,45.411 139.433,45.654 139.002,45.897 C136.720,47.179 134.322,48.346 132.004,49.477 C131.603,49.671 131.202,49.867 130.799,50.064 C130.477,49.872 130.192,49.623 129.952,49.395 C129.136,48.618 128.375,47.673 127.638,46.760 C125.850,44.542 124.001,42.248 121.200,42.152 C119.778,42.108 118.469,42.659 117.028,43.335 C111.471,45.941 106.020,48.828 100.720,51.962 L100.726,51.851 C100.731,51.768 100.666,51.696 100.583,51.692 C100.513,51.685 100.450,51.733 100.430,51.797 L97.014,46.172 C96.624,45.530 96.221,44.866 95.916,44.169 C94.864,41.765 95.077,39.242 95.441,37.548 C95.952,35.166 97.063,32.939 97.973,31.264 C100.223,27.125 103.121,22.989 106.832,18.618 C109.233,19.637 111.634,20.508 113.957,21.261 C116.718,22.385 119.600,23.208 122.535,23.699 C122.543,23.701 122.552,23.703 122.560,23.706 C122.567,23.707 122.574,23.706 122.581,23.707 C124.013,23.944 125.458,24.105 126.907,24.181 C129.176,24.301 132.525,24.290 135.394,22.824 C136.396,22.312 137.373,21.620 138.563,20.577 C143.136,16.571 146.574,11.171 148.273,5.334 C152.283,13.661 153.844,23.259 152.681,32.424 C152.676,32.429 152.670,32.431 152.667,32.437 C149.145,37.164 144.934,41.478 140.267,45.164 ZM132.136,49.749 C134.229,48.729 136.385,47.678 138.465,46.540 C136.969,47.644 135.430,48.684 133.857,49.652 C133.190,50.062 132.479,50.457 131.746,50.394 C131.533,50.375 131.329,50.318 131.136,50.237 C131.470,50.073 131.804,49.911 132.136,49.749 ZM152.037,33.763 C150.113,37.482 146.914,40.814 142.334,43.863 C145.907,40.831 149.179,37.430 152.037,33.763 ZM151.645,40.350 C146.363,45.072 141.108,49.519 134.951,52.113 C133.935,52.541 132.879,52.925 131.857,53.295 C130.386,53.830 128.865,54.382 127.431,55.079 C123.344,57.065 119.939,60.222 116.645,63.277 C116.126,63.758 115.607,64.239 115.086,64.715 C104.381,74.503 93.920,81.001 83.104,84.583 C66.677,90.022 48.432,88.790 32.335,87.704 C29.184,87.491 25.612,87.250 22.627,85.670 C19.430,83.977 17.177,80.921 15.193,78.197 C15.138,77.788 15.197,77.350 15.373,76.939 C15.603,76.401 16.002,75.973 16.483,75.744 C17.565,78.558 20.132,80.954 23.550,82.333 C26.600,83.564 29.930,83.920 33.358,84.202 C40.270,84.774 46.663,85.060 52.682,85.060 C60.916,85.060 68.450,84.525 75.671,83.444 C80.932,82.657 87.756,81.341 93.881,78.123 C99.819,75.004 104.771,70.287 109.560,65.725 C113.403,62.063 117.377,58.278 121.846,55.326 C124.682,53.454 127.758,51.891 130.789,50.406 C131.072,50.557 131.383,50.666 131.720,50.695 C132.546,50.768 133.306,50.347 134.016,49.910 C136.232,48.545 138.380,47.041 140.440,45.415 C146.388,41.864 150.363,37.925 152.543,33.426 C152.457,34.018 152.366,34.609 152.275,35.188 C152.008,36.874 151.736,38.612 151.645,40.350 ZM131.821,63.424 C131.980,63.423 132.140,63.420 132.300,63.412 C132.996,63.378 133.681,63.280 134.351,63.134 C133.542,63.453 132.722,63.753 131.891,64.033 L131.821,63.424 ZM125.945,60.731 C127.170,59.143 128.896,57.991 130.834,57.469 L131.481,63.116 C129.227,63.040 127.206,62.177 125.945,60.731 ZM15.076,78.866 C15.118,78.914 15.185,78.932 15.246,78.907 C15.270,78.897 15.288,78.880 15.303,78.862 C17.221,81.482 19.417,84.313 22.485,85.937 C25.527,87.548 29.133,87.791 32.315,88.006 C48.439,89.095 66.715,90.329 83.200,84.870 C94.057,81.274 104.554,74.755 115.291,64.938 C115.812,64.462 116.332,63.980 116.852,63.498 C120.129,60.460 123.518,57.317 127.563,55.351 C128.983,54.661 130.497,54.111 131.960,53.580 C132.986,53.208 134.046,52.823 135.069,52.392 C141.182,49.816 146.398,45.439 151.626,40.773 C151.625,40.801 151.623,40.830 151.622,40.858 C151.619,40.942 151.685,41.011 151.769,41.014 L151.773,41.014 C151.807,41.014 151.838,41.001 151.863,40.982 C153.182,44.708 152.365,49.266 149.661,53.024 C149.231,53.622 148.756,54.201 148.235,54.765 C144.988,57.617 141.206,60.054 137.057,61.975 C135.575,62.560 133.959,63.028 132.285,63.110 C132.118,63.118 131.951,63.122 131.786,63.122 L131.115,57.262 C131.110,57.219 131.086,57.180 131.051,57.155 C131.015,57.130 130.970,57.123 130.927,57.132 C129.079,57.593 127.407,58.606 126.144,60.018 C126.132,60.014 126.119,60.013 126.106,60.013 C126.076,60.013 126.046,60.023 126.019,60.041 C121.932,62.930 117.948,66.061 114.177,69.347 C112.951,70.414 111.723,71.520 110.535,72.590 C107.724,75.120 104.818,77.738 101.739,80.035 C94.347,85.550 85.656,89.423 76.608,91.231 C66.678,93.217 56.332,92.754 46.326,92.309 C43.578,92.186 40.737,92.059 37.951,91.984 L36.961,91.960 C32.224,91.843 27.325,91.722 22.986,89.830 C22.612,89.666 22.240,89.483 21.872,89.282 C21.872,89.281 21.872,89.281 21.872,89.281 C21.871,89.198 21.803,89.132 21.721,89.132 L21.718,89.132 L21.609,89.134 C17.956,87.038 14.861,83.164 15.076,78.866 Z"/>
</svg>