<svg 
 xmlns="http://www.w3.org/2000/svg"
 xmlns:xlink="http://www.w3.org/1999/xlink"
 width="76px" height="81px">
<path fill-rule="evenodd"  fill="rgb(201, 169, 107)"
 d="M2.029,61.607 C9.047,72.653 21.406,79.999 35.446,79.999 C58.205,79.999 76.541,60.705 74.899,37.631 C73.503,18.018 57.498,2.232 37.847,1.065 C22.617,0.162 9.079,7.925 1.732,19.873 C1.360,20.478 0.712,20.857 0.002,20.857 C7.272,7.816 21.558,-0.825 37.717,0.063 C57.952,1.172 74.478,17.408 75.894,37.600 C77.553,61.235 58.762,80.994 35.446,80.994 C20.416,80.994 7.278,72.782 0.270,60.623 C0.988,60.623 1.645,61.001 2.029,61.607 Z"/>
</svg>