<svg 
 xmlns="http://www.w3.org/2000/svg"
 xmlns:xlink="http://www.w3.org/1999/xlink"
 width="77px" height="82px">
<path fill-rule="evenodd"  fill="rgb(201, 169, 107)"
 d="M74.959,62.561 C67.900,73.634 55.471,80.997 41.350,80.997 C18.460,80.997 0.019,61.658 1.670,38.530 C3.073,18.872 19.171,3.049 38.935,1.880 C54.252,0.974 67.868,8.756 75.258,20.732 C75.632,21.338 76.284,21.717 76.998,21.717 C69.686,8.646 55.318,-0.014 39.065,0.875 C18.714,1.987 2.093,18.261 0.669,38.499 C-0.1000,62.189 17.899,81.993 41.350,81.993 C56.466,81.993 69.680,73.762 76.728,61.576 C76.006,61.576 75.346,61.954 74.959,62.561 Z"/>
</svg>