<svg xmlns="http://www.w3.org/2000/svg" viewBox="0 0 499.28 298.87"><g id="Layer_2" data-name="Layer 2"><g id="Layer_1-2" data-name="Layer 1"><path d="M142.52,248.4H90.64a8.44,8.44,0,1,1,0-16.87h51.88a8.44,8.44,0,1,1,0,16.87Z"/><path d="M353,248.4H239.68a8.44,8.44,0,1,1,0-16.87H353a8.44,8.44,0,1,1,0,16.87Z"/><path d="M490.68,248.4H450.05a8.44,8.44,0,1,1,0-16.87h32.36V166.15a26.1,26.1,0,0,0-11.26-21.5l-25.88-17.49a9.46,9.46,0,0,1-2.31-2.37L381.52,29.88a28.12,28.12,0,0,0-23.85-13H122.32a8.44,8.44,0,1,1,0-16.88H357.67a45,45,0,0,1,38,20.71l60.49,93.45,24.19,16.54a42.93,42.93,0,0,1,18.9,35.45V240a8.43,8.43,0,0,1-8.43,8.44Z"/><path d="M191.07,298.87a57.05,57.05,0,1,1,57.05-57.05h0A57,57,0,0,1,191.07,298.87Zm0-97.22a40.17,40.17,0,1,0,40.17,40.17h0A40.22,40.22,0,0,0,191.07,201.65Z"/><path d="M401.44,298.87a57.05,57.05,0,1,1,57.05-57.05h0A57.1,57.1,0,0,1,401.44,298.87Zm0-97.22a40.17,40.17,0,1,0,40.17,40.17h0A40.28,40.28,0,0,0,401.44,201.65Z"/><path d="M450.05,128.62H313.16a8.44,8.44,0,0,1-8.44-8.44V8.44A8.44,8.44,0,0,1,313.16,0h43.1a47.69,47.69,0,0,1,40.23,21.89l60.65,93.73a8.38,8.38,0,0,1-7.09,13ZM321.6,111.74H434.52L382.31,31.06a30.88,30.88,0,0,0-26.05-14.18H321.6Z"/><path d="M153,78.49H64.76a8.44,8.44,0,0,1,0-16.88H153a8.44,8.44,0,0,1,0,16.88Z"/><path d="M113.26,139.7H8.44a8.44,8.44,0,0,1,0-16.88H113.26a8.44,8.44,0,0,1,0,16.88Z"/><path d="M103.58,190.9h-63a8.44,8.44,0,0,1,0-16.88h63a8.44,8.44,0,1,1,0,16.88Z"/></g></g></svg>