<svg xmlns="http://www.w3.org/2000/svg" width="90" height="90" viewBox="0 0 90 90">
  <defs>
    <style>
      .cls-1 {
        fill: #282e26;
        fill-rule: evenodd;
      }
    </style>
  </defs>
  <path id="Next" class="cls-1" d="M1673.64,5592.98l0.94-1.13-0.84-3.12,3.23,0.24,0.94-1.14-4.41-.3-1.01-4.01-0.89,1.07,0.76,2.93-3.02-.21-0.92,1.12,4.15,0.3Zm38.08-20.53,2.81,5.36,1.03,0.22,1.37-6.81-1.24-.25-0.93,4.6-2.81-5.36-1.04-.21-1.37,6.8,1.25,0.26Zm-38.19,20.76-0.93-.55-1.96,3.39-1.65-.96,1.68-2.9-0.91-.53-1.68,2.89-1.55-.91,1.89-3.26-0.93-.55-2.54,4.38,5.98,3.5Zm1.97-10.97,3.86,4.39,0.96-.85-3.86-4.39,1.72-1.52-0.72-.82-4.4,3.9,0.72,0.82Zm-6.92,21.46-4.41-1.57,5.69-2.03,0.35-1-6.51-2.33-0.43,1.2,4.41,1.58-5.69,2.03-0.35,1,6.51,2.33Zm-4.85,13.82a1.871,1.871,0,0,0,.21-0.98,1.945,1.945,0,0,0-.29-0.99,1.908,1.908,0,0,0-.73-0.68,2.016,2.016,0,0,0-1.04-.23,1.967,1.967,0,0,0-1,.31,2.01,2.01,0,0,0-.68.74,2.041,2.041,0,0,0-.21,1.01,1.956,1.956,0,0,0,.29.96,2.038,2.038,0,0,0,.73.7,2.077,2.077,0,0,0,1.03.22,2.01,2.01,0,0,0,1.02-.31A1.939,1.939,0,0,0,1663.73,5617.52Zm58.51-38.03-3.62-1.47,0.72-1.78,3.09,1.26,0.4-.98-3.09-1.26,0.67-1.67,3.49,1.41,0.4-1-4.67-1.9-2.6,6.43,4.81,1.96Zm-57.38,53.04,5.36-2.28-0.5-1.19-5.36,2.28-0.9-2.12-1,.43,2.29,5.42,1-.42Zm76.38-29.29,4.53-1.2-3.55,4.9,0.27,1.03,6.69-1.78-0.33-1.24-4.52,1.21,3.54-4.91-0.27-1.03-6.68,1.79Zm1.84,11.5,1.07-.08-0.29-3.91,1.9-.14,0.25,3.34,1.06-.08-0.25-3.34,1.79-.13,0.28,3.76,1.07-.08-0.37-5.05-6.9.52Zm-20.99-34.17,1.25,0.77,2.96-1.27,0.21,3.24,1.26,0.78-0.33-4.42,3.82-1.58-1.19-.73-2.78,1.17-0.21-3.03-1.24-.76,0.29,4.17Zm18.11,12.48a1.958,1.958,0,0,0,.98.22,2.1,2.1,0,0,0,1.01-.34,2,2,0,0,0,.7-0.78,1.965,1.965,0,0,0,.2-0.98,2.068,2.068,0,0,0-.32-0.98,2.021,2.021,0,0,0-.75-0.67,1.837,1.837,0,0,0-.98-0.22,1.886,1.886,0,0,0-.99.33,1.913,1.913,0,0,0-.72.78,1.981,1.981,0,0,0-.2.99,2.031,2.031,0,0,0,.32.96A1.977,1.977,0,0,0,1740.2,5593.05Zm7.45,31.84-5.65-1.42-0.31,1.25,5.65,1.42-0.56,2.23,1.06,0.27,1.42-5.72-1.05-.26Zm-20.26,20.78,2.58,3.92-5.76-1.81-0.88.58,3.81,5.8,1.06-.71-2.58-3.92,5.76,1.81,0.89-.58-3.81-5.8Zm3.79-66.26,1.75,1.49-3.79,4.45,0.98,0.84,3.78-4.45,1.75,1.49,0.7-.83-4.46-3.82Zm-14.05,71.66,0.42,1,3.6-1.52,0.74,1.76-3.08,1.3,0.41,0.98,3.08-1.3,0.69,1.66-3.46,1.47,0.41,1,4.66-1.97-2.69-6.4Zm24.42-13.33a1.95,1.95,0,0,0-1-.37,1.9,1.9,0,0,0-.99.2,1.99,1.99,0,0,0-.76.65,2.039,2.039,0,0,0-.35.96,1.962,1.962,0,0,0,.17.99,2,2,0,0,0,.7.81,2.059,2.059,0,0,0,.98.36,1.936,1.936,0,0,0,.98-0.19,2,2,0,0,0,.78-0.67,1.981,1.981,0,0,0,.17-1.94A2,2,0,0,0,1741.55,5637.74Zm-24.63,13.45-1.42.33-1.21,3-2.43-2.14-1.44.34,3.35,2.9-1.6,3.81,1.36-.31,1.14-2.81,2.28,2,1.42-.33-3.14-2.76Zm33.07-35.44-3.59,2.12-3.28-2.89-0.13,1.46,2.45,2.1-2.79,1.64-0.14,1.48,3.8-2.27,3.11,2.72,0.12-1.39-2.28-1.97,2.6-1.55Zm-69.93,33.89-0.11-6.06-0.83-.66-4.27,5.46,1,0.79,2.89-3.7,0.11,6.07,0.83,0.65,4.27-5.46-1-.79Zm-5.64-11.93-0.77-1.24-3.22-.2,1.25-2.99-0.78-1.27-1.67,4.11-4.11-.3,0.73,1.19,3.01,0.19-1.16,2.81,0.77,1.24,1.6-3.86Zm0.19,0.18-0.81.72,2.58,2.94-1.43,1.26-2.21-2.51-0.79.7,2.2,2.51-1.35,1.2-2.48-2.84-0.81.72,3.33,3.8,5.19-4.59Zm19.84,17.07a1.982,1.982,0,0,0-.85-0.52,2.007,2.007,0,0,0-1.03-.03,1.907,1.907,0,0,0-.88.48,2.067,2.067,0,0,0-.54.92,1.974,1.974,0,0,0-.02,1.05,1.877,1.877,0,0,0,.49.88,2,2,0,0,0,2.77.07,1.931,1.931,0,0,0,.53-0.91,1.955,1.955,0,0,0,.03-1.07A1.913,1.913,0,0,0,1694.45,5654.96Zm-2.46-79.57a1.993,1.993,0,0,0,1-.04,1.951,1.951,0,0,0,.87-0.54,1.859,1.859,0,0,0,.48-0.88,2.068,2.068,0,0,0-.05-1.07,1.963,1.963,0,0,0-1.43-1.36,2.01,2.01,0,0,0-1.03.05,1.911,1.911,0,0,0-.85.53,1.859,1.859,0,0,0-.48.88,1.981,1.981,0,0,0,.04,1.05A1.928,1.928,0,0,0,1691.99,5575.39Zm17,83.24-0.44-5.84-1.28.1,0.44,5.84-2.29.17,0.09,1.09,5.85-.45-0.09-1.09Zm-20.07-44.34h26.43c-0.75-.73-5.72-4.24-5.72-9.31h2.16c0,3.26,4.5,9.31,9.11,9.31v2.4s-8.27,1.84-9,9.33h-2.04c0-5.22,5.08-8.94,5.49-9.33h-26.43v-2.4Z" transform="translate(-1660 -5570)"/>
</svg>
