<svg xmlns="http://www.w3.org/2000/svg" width="90" height="90" viewBox="0 0 90 90">
  <defs>
    <style>
      .cls-1 {
        fill: #282e26;
        fill-rule: evenodd;
      }
    </style>
  </defs>
  <path id="Prev" class="cls-1" d="M183.026,5594.14l-1.655-1.16,0.9-1.28c0.053-.08.1-0.16,0.144-0.23h2.473l0.794-1.14-2.775.01c0.009-.04.021-0.07,0.028-0.11a2.3,2.3,0,0,0-.108-1.32,2.632,2.632,0,0,0-2.153-1.51,2.323,2.323,0,0,0-1.278.35,3.817,3.817,0,0,0-1.147,1.13l-1.632,2.34,5.676,3.98Zm-2.522-1.77-2.262-1.58,0.861-1.24a1.962,1.962,0,0,1,1.026-.85,1.253,1.253,0,0,1,1.081.23,1.279,1.279,0,0,1,.589.94,1.961,1.961,0,0,1-.433,1.27Zm-7.587,21.76a1.892,1.892,0,0,0,.742-0.69,1.921,1.921,0,0,0,.309-0.95,1.941,1.941,0,0,0-.2-1.01,2.032,2.032,0,0,0-2.7-.87,1.909,1.909,0,0,0-.742.67,1.987,1.987,0,0,0-.311.98,1.939,1.939,0,0,0,.2.99,1.906,1.906,0,0,0,.661.76,1.967,1.967,0,0,0,1,.32A1.909,1.909,0,0,0,172.917,5614.13Zm6.956-13.97-1.816-.83,0.653-1.43a3.851,3.851,0,0,0,.388-1.56,2.277,2.277,0,0,0-.349-1.28,2.38,2.38,0,0,0-1.047-.88,2.223,2.223,0,0,0-2.54.34,3.877,3.877,0,0,0-.929,1.32l-1.189,2.6,6.291,2.9Zm-2.177-2.66-0.628,1.37-2.5-1.15,0.628-1.37a1.962,1.962,0,0,1,.858-1.02,1.407,1.407,0,0,1,1.848.85A1.97,1.97,0,0,1,177.7,5597.5Zm43.552-22.39,1.535,0.29a3.78,3.78,0,0,0,1.606.01,2.336,2.336,0,0,0,1.155-.65,2.623,2.623,0,0,0,.495-2.59,2.254,2.254,0,0,0-.836-1.03,3.7,3.7,0,0,0-1.5-.59l-2.8-.54-1.3,6.82,1.263,0.25Zm0.721-3.78,1.477,0.28a1.921,1.921,0,0,1,1.191.59,1.417,1.417,0,0,1-.382,2,1.941,1.941,0,0,1-1.325.12l-1.477-.29Zm28.864,22.62a1.928,1.928,0,0,0,.972.24,1.981,1.981,0,0,0,1.018-.32,1.892,1.892,0,0,0,.724-0.76,1.916,1.916,0,0,0,.226-0.97,2.012,2.012,0,0,0-1.028-1.68,1.869,1.869,0,0,0-.977-0.25,1.973,1.973,0,0,0-1,.31,1.944,1.944,0,0,0-.741.77,1.885,1.885,0,0,0-.221.98,1.954,1.954,0,0,0,.289.96A1.892,1.892,0,0,0,250.833,5593.95Zm-13.715-10.34,0.559-.92-3.342-2.03,0.989-1.64,2.86,1.74,0.547-.91-2.859-1.74,0.932-1.55,3.224,1.96,0.559-.92-4.324-2.63-3.587,5.94Zm-47.041,2.27-0.764-.76-2.758,2.77-1.353-1.35,2.361-2.37-0.75-.75-2.36,2.37-1.275-1.27,2.661-2.68-0.764-.77-3.569,3.59,4.9,4.91Zm62.83,25.01,2.015-.14,0.1,1.57c0.006,0.09.029,0.17,0.039,0.26l-1.942,1.56,0.09,1.38,2.169-1.75a0.867,0.867,0,0,0,.039.11,2.23,2.23,0,0,0,.905.96,2.411,2.411,0,0,0,1.332.27,2.362,2.362,0,0,0,1.289-.44,2.338,2.338,0,0,0,.782-1.07,3.87,3.87,0,0,0,.193-1.6l-0.187-2.86-6.91.46Zm5.824-.39,0.1,1.51a1.954,1.954,0,0,1-.272,1.3,1.228,1.228,0,0,1-.988.5,1.262,1.262,0,0,1-1.045-.36,1.942,1.942,0,0,1-.449-1.26l-0.1-1.51Zm-30.551-33.68,1.458,0.56c0.086,0.04.169,0.06,0.253,0.09l0.587,2.41,1.291,0.5-0.665-2.7h0.11a2.212,2.212,0,0,0,1.249-.42,2.315,2.315,0,0,0,.805-1.1,2.379,2.379,0,0,0,.142-1.36,2.282,2.282,0,0,0-.638-1.16,3.853,3.853,0,0,0-1.364-.85l-2.658-1.03-2.5,6.48,1.2,0.47Zm1.377-3.58,1.4,0.55a1.935,1.935,0,0,1,1.067.8,1.419,1.419,0,0,1-.735,1.9,1.87,1.87,0,0,1-1.327-.12l-1.4-.54Zm-50.878,52.89-7.52-.71,0.4,1.23,5.8,0.55L173,5631.06l0.435,1.33,5.636-5.05Zm7.235,13.31-1.59,1.25-0.963-1.24c-0.057-.07-0.115-0.14-0.173-0.2l0.727-2.37-0.853-1.1-0.809,2.66-0.093-.06a2.3,2.3,0,0,0-1.287-.28,2.6,2.6,0,0,0-2.069,1.63,2.3,2.3,0,0,0-.045,1.33,3.82,3.82,0,0,0,.738,1.42l1.756,2.26,5.453-4.28Zm-4.6,3.61-0.926-1.19a1.986,1.986,0,0,1-.509-1.23,1.424,1.424,0,0,1,1.6-1.26,1.881,1.881,0,0,1,1.077.78l0.927,1.19Zm-1.2-12.78-0.951.51,1.838,3.46-1.685.9-1.573-2.96-0.934.5,1.572,2.96-1.588.85-1.773-3.34-0.951.51,2.377,4.48,6.111-3.27Zm70.354,9.3a2.151,2.151,0,0,0-.98-0.42,1.9,1.9,0,0,0-1,.15,1.979,1.979,0,0,0-1.07,2.56,2.023,2.023,0,0,0,.659.84,1.932,1.932,0,0,0,.965.41,1.941,1.941,0,0,0,1.8-.78,1.98,1.98,0,0,0,.267-1.93A1.973,1.973,0,0,0,250.471,5639.57Zm-14.568,7.22,1.036,1.71-1.337.81a3.832,3.832,0,0,0-1.2,1.08,2.322,2.322,0,0,0-.425,1.26,2.367,2.367,0,0,0,.377,1.31,2.327,2.327,0,0,0,.986.94,2.218,2.218,0,0,0,1.308.21,3.825,3.825,0,0,0,1.5-.57l2.437-1.48L237,5646.12Zm3.025,5-1.285.79a2.025,2.025,0,0,1-1.281.36,1.422,1.422,0,0,1-1.053-1.75,1.947,1.947,0,0,1,.908-0.97l1.286-.78Zm-9-1.79,0.72,1.89-1.46.56a2.169,2.169,0,0,0-.246.11l-2.045-1.4-1.294.5,2.3,1.56a0.441,0.441,0,0,0-.083.07,2.263,2.263,0,0,0-.647,1.15,2.6,2.6,0,0,0,.938,2.46,2.313,2.313,0,0,0,1.251.44,3.946,3.946,0,0,0,1.58-.29l2.661-1.02-2.474-6.49Zm0.68,6.01a1.981,1.981,0,0,1-1.325.12,1.237,1.237,0,0,1-.765-0.8,1.274,1.274,0,0,1,.038-1.11,1.926,1.926,0,0,1,1.065-.8l1.4-.54,0.986,2.59Zm22.945-52.29,0.38,1.52a3.847,3.847,0,0,0,.67,1.47,2.274,2.274,0,0,0,1.071.78,2.644,2.644,0,0,0,2.553-.64,2.289,2.289,0,0,0,.579-1.2,3.791,3.791,0,0,0-.094-1.6l-0.69-2.78-6.719,1.69,0.313,1.25Zm3.725-.93,0.364,1.46a2,2,0,0,1-.035,1.34,1.421,1.421,0,0,1-1.972.49,1.971,1.971,0,0,1-.662-1.16l-0.364-1.46Zm-4.161,13.78-0.553,5.18,1.072,0.11,0.416-3.9,1.9,0.21-0.357,3.33,1.052,0.12,0.357-3.34,1.79,0.19-0.4,3.76,1.072,0.12,0.539-5.04Zm-1.679,9.41,5.825,4.83,0.354-1.25-4.49-3.72,5.766-.74,0.384-1.35-7.491,1.01Zm-10.39-41.15,1.763-5.56-1.053-.92-2.256,7.24,0.956,0.83,6.819-3.26-0.971-.84ZM191,5576.61l1.186,5.72-4.964-3.03-1.138.81,6.472,3.91,1.034-.73-1.54-7.42Zm28.478,76.24,0.2,1.07,3.838-.74,0.359,1.88-3.284.63,0.2,1.04,3.284-.63,0.338,1.78-3.7.71,0.2,1.06,4.965-.95-1.3-6.83Zm-30.075-7.12-1.166-1.04a3.74,3.74,0,0,0-1.375-.83,2.222,2.222,0,0,0-1.323-.04,2.31,2.31,0,0,0-1.142.74,2.387,2.387,0,0,0-.61,1.23,2.287,2.287,0,0,0,.19,1.31,3.839,3.839,0,0,0,.979,1.28l2.125,1.9,4.612-5.18-0.959-.86Zm-2.557,2.88-1.121-1.01a1.978,1.978,0,0,1-.719-1.12,1.257,1.257,0,0,1,.358-1.05,1.24,1.24,0,0,1,1-.47,1.923,1.923,0,0,1,1.2.58l1.122,1.01Zm14.726,5.52a1.933,1.933,0,0,0-.819-0.58,1.9,1.9,0,0,0-1.021-.11,1.949,1.949,0,0,0-.913.41,2.039,2.039,0,0,0-.606.88,1.945,1.945,0,0,0,.319,1.96,2.049,2.049,0,0,0,.844.59,1.981,1.981,0,0,0,1,.09,1.851,1.851,0,0,0,.92-0.41,1.925,1.925,0,0,0,.6-0.86,2,2,0,0,0,.111-1.06A1.881,1.881,0,0,0,201.573,5654.13Zm13.531-1.12-2.89,7,1.286-.02,2.229-5.4,2.4,5.32,1.394-.03-3.153-6.89Zm-8.981-81.59a1.876,1.876,0,0,0-.859-0.52,1.984,1.984,0,0,0-1.027-.01,1.922,1.922,0,0,0-.88.48,1.883,1.883,0,0,0-.532.86,1.944,1.944,0,0,0-.015,1.05,1.983,1.983,0,0,0,.5.94,1.855,1.855,0,0,0,.868.51,1.891,1.891,0,0,0,1,.02,1.97,1.97,0,0,0,.905-0.49,1.887,1.887,0,0,0,.524-0.85,2,2,0,0,0,.011-1.07A1.886,1.886,0,0,0,206.123,5571.42Zm24.806,42.87H204.5c0.75-.73,5.714-4.24,5.714-9.31h-2.16c0,3.26-4.5,9.31-9.108,9.31v2.4s8.268,1.84,9,9.33h2.035c0-5.22-5.08-8.94-5.482-9.33h26.429v-2.4Z" transform="translate(-170 -5570)"/>
</svg>
