<svg 
 xmlns="http://www.w3.org/2000/svg"
 xmlns:xlink="http://www.w3.org/1999/xlink"
 width="44px" height="50px">
<path fill-rule="evenodd"  fill="rgb(24, 24, 24)"
 d="M42.469,18.498 C41.667,17.682 40.568,17.146 39.280,16.941 C39.142,7.575 31.443,-0.001 21.1000,-0.001 C12.556,-0.001 4.858,7.575 4.720,16.941 C1.759,17.413 -0.000,19.561 -0.000,22.736 L-0.000,31.564 C-0.000,33.530 0.658,35.118 1.903,36.155 C2.938,37.016 4.377,37.491 5.957,37.491 L8.694,37.491 C9.377,37.491 9.932,36.938 9.932,36.258 L9.932,18.078 C9.932,17.399 9.377,16.845 8.694,16.845 L7.198,16.845 C7.356,8.858 13.935,2.408 21.1000,2.408 C30.064,2.408 36.643,8.858 36.801,16.845 L35.306,16.845 C34.623,16.845 34.067,17.399 34.067,18.078 L34.067,36.230 C34.067,36.910 34.623,37.462 35.306,37.462 L36.790,37.462 C36.449,43.482 33.473,44.808 27.797,45.097 L27.797,44.776 C27.797,43.578 26.818,42.604 25.614,42.604 L19.678,42.604 C18.475,42.604 17.496,43.578 17.496,44.776 L17.496,47.828 C17.496,49.025 18.475,49.1000 19.678,49.1000 L25.633,49.1000 C26.836,49.1000 27.815,49.025 27.815,47.828 L27.815,47.563 C30.571,47.424 33.391,47.066 35.548,45.588 C37.865,43.999 39.085,41.310 39.271,37.369 C42.238,36.900 43.1000,34.751 43.1000,31.573 L43.1000,22.745 C43.1000,20.959 43.485,19.530 42.469,18.498 ZM7.455,19.245 L7.455,34.998 L5.910,34.998 C4.322,34.998 2.430,34.397 2.430,31.535 L2.430,22.708 C2.430,19.847 4.322,19.245 5.910,19.245 L7.455,19.245 ZM41.523,31.562 L41.523,31.564 C41.523,34.425 39.630,35.026 38.043,35.026 L36.545,35.026 L36.545,19.311 L38.090,19.311 C39.677,19.311 41.570,19.912 41.570,22.772 L41.523,31.562 Z"/>
</svg>