<svg xmlns="http://www.w3.org/2000/svg" width="45" height="50" viewBox="0 0 45 50">
  <defs>
    <style>
      .cls-1 {
        fill-rule: evenodd;
        opacity: 0.9;
      }
    </style>
  </defs>
  <path id="warrent" class="cls-1" d="M1146.04,6016.23l-19.82-11.05a1.53,1.53,0,0,0-1.44,0l-19.82,11.05a3.791,3.791,0,0,0-1.96,3.31v6.66a27.992,27.992,0,0,0,13.39,23.85l7.03,4.36a3.961,3.961,0,0,0,4.16,0l7.03-4.36A27.992,27.992,0,0,0,1148,6026.2v-6.66a3.791,3.791,0,0,0-1.96-3.31h0Zm-0.95,9.97a25.127,25.127,0,0,1-12.04,21.43l-7.03,4.37a0.976,0.976,0,0,1-1.04,0l-7.03-4.37a25.127,25.127,0,0,1-12.04-21.43v-6.66a0.951,0.951,0,0,1,.49-0.83l19.1-10.64,19.1,10.64a0.951,0.951,0,0,1,.49.83v6.66h0Zm-9.57-2.83a1.407,1.407,0,0,1,0,2.02l-11.91,11.68a1.473,1.473,0,0,1-2.06,0l-6.07-5.95a1.407,1.407,0,0,1,0-2.02,1.473,1.473,0,0,1,2.06,0l5.04,4.94,10.89-10.67a1.461,1.461,0,0,1,2.05,0h0Z" transform="translate(-1103 -6005)"/>
</svg>
